<svg xmlns="http://www.w3.org/2000/svg" viewBox="0 0 900 220" width="900" height="220">
  <title>Fundacja Szansa AI — wersja jednokolorowa (dokumenty, pieczątki, grawer)</title>

  <g transform="translate(10,10) scale(0.475)" fill="none" stroke="#0b1220">
    <g stroke-width="2.5" opacity="0.9">
      <line x1="250" y1="120" x2="255" y2="55"/>
      <line x1="250" y1="120" x2="210" y2="80"/>
      <line x1="250" y1="120" x2="300" y2="95"/>
      <line x1="250" y1="120" x2="195" y2="135"/>
      <line x1="250" y1="120" x2="310" y2="150"/>
      <line x1="250" y1="120" x2="215" y2="175"/>
      <line x1="250" y1="120" x2="280" y2="185"/>
      <line x1="210" y1="80" x2="195" y2="135"/>
      <line x1="300" y1="95" x2="310" y2="150"/>
      <line x1="215" y1="175" x2="280" y2="185"/>
    </g>
    <g fill="#0b1220" stroke="none">
      <circle cx="250" cy="120" r="20"/>
      <circle cx="255" cy="55" r="12"/>
      <circle cx="210" cy="80" r="9"/>
      <circle cx="300" cy="95" r="10"/>
      <circle cx="195" cy="135" r="8"/>
      <circle cx="310" cy="150" r="8"/>
      <circle cx="215" cy="175" r="11"/>
      <circle cx="280" cy="185" r="7"/>
      <path d="M330 40 L333 50 L343 53 L333 56 L330 66 L327 56 L317 53 L327 50 Z"/>
      <path d="M168 55 L170 61 L176 63 L170 65 L168 71 L166 65 L160 63 L166 61 Z"/>
      <circle cx="120" cy="245" r="19"/>
    </g>
    <g stroke-width="13" stroke-linecap="round" stroke-linejoin="round">
      <path d="M120 264 L120 320"/>
      <path d="M120 320 L98 378"/>
      <path d="M120 320 L145 378"/>
      <path d="M120 278 L88 305"/>
      <path d="M120 278 L182 213"/>
    </g>
    <path d="M75 388 Q120 405 165 388" stroke-width="3" stroke-linecap="round" opacity="0.85"/>
  </g>

  <text x="228" y="88" font-family="Georgia, 'Times New Roman', serif" font-size="23"
        letter-spacing="9" fill="#0b1220">FUNDACJA</text>
  <text x="225" y="162" font-family="Georgia, 'Times New Roman', serif" font-size="80"
        font-style="italic" fill="#0b1220">Szansa<tspan font-style="normal" dx="14" letter-spacing="2">AI</tspan></text>
  <line x1="228" y1="182" x2="860" y2="182" stroke="#0b1220" stroke-width="1.5" opacity="0.8"/>
  <circle cx="860" cy="182" r="3.5" fill="#0b1220"/>
</svg>
